<?xml version="1.0" encoding="utf-8"?>
<!-- Generator: Adobe Illustrator 16.0.0, SVG Export Plug-In . SVG Version: 6.00 Build 0)  -->
<!DOCTYPE svg PUBLIC "-//W3C//DTD SVG 1.1//EN" "http://www.w3.org/Graphics/SVG/1.1/DTD/svg11.dtd">
<svg version="1.1" id="Layer_1" xmlns:vectorillustrator="http://taptrix.com/vectorillustrator/svg_extensions"
	 xmlns="http://www.w3.org/2000/svg" xmlns:xlink="http://www.w3.org/1999/xlink" x="0px" y="0px" width="313.484px"
	 height="281.985px" viewBox="132.239 165.549 313.484 281.985" enable-background="new 132.239 165.549 313.484 281.985"
	 xml:space="preserve">
<g vectorillustrator:layerName="Layer 1">
	<path fill="#2E8A6A" d="M261.996,189.855L220.561,341.1l-14.715-38.15H156.26v26.829h30.793l38.829,95.658l38.828-143.205
		l16.078,47.547h40.299c4.668,7.859,12.842,13.358,22.643,13.358c14.786,0,26.717-11.929,26.717-26.717
		c0-14.788-11.931-26.829-26.717-26.829c-9.801,0-17.975,5.499-22.643,13.358H299.58L261.996,189.855z M343.73,236.043
		c-20.655,0-39.377,8.118-53.658,21.057c1.607,4.842,2.2,6.475,3.623,10.755c12.68-13.099,30.383-21.397,50.035-21.397
		c38.553,0,69.734,31.407,69.734,69.961s-31.182,69.849-69.734,69.849c-33.359,0-61.129-23.516-68.037-54.792l-0.34-1.019
		l-10.073-29.774l-0.454,1.699c-0.814,4.566-1.474,9.25-1.474,14.038c0,44.18,36.198,80.262,80.378,80.262
		c44.181,0,80.263-36.083,80.263-80.262S387.91,236.043,343.73,236.043z M343.73,262.874c-16.683,0-31.482,7.871-41.32,19.924
		c0.955,2.868,3.272,9.701,3.736,11.095h10.639c6.66-8.178,16.155-13.358,26.945-13.358c19.777,0,35.771,16.086,35.771,35.886
		c0,19.789-15.983,35.773-35.771,35.773c-10.79,0-20.285-5.18-26.945-13.358h-21.506c8.533,18.308,27.013,31.131,48.451,31.131
		c29.451,0,53.55-24.093,53.55-53.546C397.28,286.967,373.181,262.874,343.73,262.874z"/>
</g>
<text transform="matrix(1 0 0 1 -2.441406e-04 0)" font-family="'HelveticaNeue-Bold'" font-size="5">Created by Alexandr Cherkinsky</text>
<text transform="matrix(1 0 0 1 -2.441406e-04 0)" font-family="'HelveticaNeue-Bold'" font-size="5">from the Noun Project</text>
</svg>
